<svg width="421" height="158" viewBox="0 0 421 158" fill="none" xmlns="http://www.w3.org/2000/svg">
<path d="M265.274 141.043C282.362 126.497 291.518 103.501 293.96 93.8218C300.456 118.535 315.79 135.6 322.645 141.043H265.274Z" fill="#DED3CC" stroke="#454545"/>
<path d="M286.722 140.866C291.086 137.168 293.424 131.323 294.048 128.862C295.707 135.145 299.623 139.482 301.373 140.866H286.722Z" fill="#828282"/>
<path d="M296.784 77.8462C295.874 90.5867 288.282 121.027 265.186 140.866" stroke="#828282" stroke-width="4" stroke-linecap="round" stroke-linejoin="round"/>
<path d="M322.557 140.866C301.598 122.863 293.406 96.1304 291.39 81.8159" stroke="#828282" stroke-width="4" stroke-linecap="round" stroke-linejoin="round"/>
<path d="M294.902 124.272C294.662 127.642 292.654 135.693 286.545 140.94" stroke="#828282" stroke-width="2"/>
<path d="M293.361 124.272C293.602 127.642 295.61 135.693 301.719 140.94" stroke="#828282" stroke-width="2"/>
<path d="M144.207 140.947C184.658 106.513 206.333 52.0767 212.113 29.1626C227.492 87.6666 263.792 128.062 280.02 140.947H144.207Z" fill="#DED3CC" stroke="#454545"/>
<path d="M194.98 140.529C205.311 131.776 210.846 117.938 212.323 112.113C216.25 126.985 225.521 137.254 229.665 140.529H194.98Z" fill="#828282"/>
<path d="M143.998 140.529C193.005 98.434 212.526 36.1751 217.597 2" stroke="#828282" stroke-width="4" stroke-linecap="round" stroke-linejoin="round"/>
<path d="M279.811 140.529C232.075 99.5264 212.315 39.3926 206.636 4.71631" stroke="#828282" stroke-width="4" stroke-linecap="round" stroke-linejoin="round"/>
<path d="M194.562 140.705C208.093 129.083 213.126 111.648 214.183 102.919" stroke="#828282" stroke-width="2" stroke-linecap="round"/>
<path d="M210.699 101.248C211.269 109.225 216.023 128.284 230.483 140.705" stroke="#828282" stroke-width="2" stroke-linecap="round"/>
<path d="M92.3066 143.316C116.789 122.476 129.907 89.5297 133.405 75.6616C142.712 111.07 164.682 135.518 174.504 143.316H92.3066Z" fill="#DED3CC" stroke="#454545"/>
<path d="M123.036 143.063C129.288 137.766 132.639 129.391 133.532 125.865C135.909 134.866 141.52 141.081 144.028 143.063H123.036Z" fill="#828282"/>
<path d="M92.1807 143.063C124.068 115.673 135.329 74.1775 137.272 54.8623" stroke="#828282" stroke-width="4" stroke-linecap="round" stroke-linejoin="round"/>
<path d="M129.106 52.7729C130.409 71.0266 141.287 114.64 174.378 143.063" stroke="#828282" stroke-width="4" stroke-linecap="round" stroke-linejoin="round"/>
<path d="M134.757 119.29C134.412 124.117 131.535 135.652 122.783 143.17" stroke="#828282" stroke-width="2"/>
<path d="M132.55 119.29C132.894 124.117 135.771 135.652 144.523 143.17" stroke="#828282" stroke-width="2"/>
<line x1="93" y1="141.756" x2="320.751" y2="141.756" stroke="#828282" stroke-width="6" stroke-linecap="round"/>
<line x1="2.5" y1="155.5" x2="417.519" y2="155.5" stroke="#828282" stroke-width="5" stroke-linecap="round"/>
</svg>
